<svg width="136" height="136" viewBox="0 0 136 136" fill="none" xmlns="http://www.w3.org/2000/svg">
<circle cx="68" cy="68" r="68" fill="#D9D9D9"/>
<path fill-rule="evenodd" clip-rule="evenodd" d="M90.5247 48.252C90.5247 61.032 80.8651 72 68.0022 72C55.1292 72 45.4796 61.032 45.4796 48.248C45.4796 35.472 53.7879 28 68.0022 28C82.2164 28 90.5247 35.468 90.5247 48.252ZM28.4725 100.568C30.3994 102.4 38.6978 108 68.0022 108C97.3066 108 105.6 102.4 107.532 100.572C107.711 100.396 107.843 100.193 107.921 99.9752C107.998 99.7571 108.019 99.5287 107.982 99.304C107.542 95.776 103.568 80 68.0022 80C32.4365 80 28.4625 95.776 28.017 99.304C27.9808 99.529 28.0025 99.7576 28.0808 99.9756C28.1591 100.194 28.2924 100.393 28.4725 100.568Z" fill="white"/>
</svg>
