<svg width="20" height="20" viewBox="0 0 20 20" fill="none" xmlns="http://www.w3.org/2000/svg">
<path d="M14.8007 0.144531C14.3893 0.144531 14.0537 0.501459 14.0537 0.939082V4.73803L10.1082 0.541807C9.81638 0.231435 9.32612 0.231435 9.0343 0.541807L0.279597 9.87778C-0.0122259 10.1882 -0.0122259 10.6847 0.279597 10.9951C0.571421 11.3055 1.03834 11.3055 1.33016 10.9951L9.57125 2.23023L17.8357 11.0199C17.9816 11.1751 18.18 11.2682 18.3726 11.2682C18.5652 11.2682 18.7403 11.1751 18.8863 11.0199C19.1781 10.7096 19.1781 10.213 18.8863 9.90261L16.2949 7.14651V0.939082C16.2949 0.501459 15.9593 0.144531 15.5478 0.144531H14.8007ZM9.57125 3.69518L1.35351 12.4352V16.8053C1.35351 18.1212 2.35738 19.1889 3.59471 19.1889H15.5478C16.7851 19.1889 17.789 18.1212 17.789 16.8053V12.4352L9.57125 3.69518ZM8.07712 11.2434H11.0654C11.4769 11.2434 11.8125 11.6003 11.8125 12.038V16.8053C11.8125 17.2429 11.4769 17.5998 11.0654 17.5998H8.07712C7.66565 17.5998 7.33005 17.2429 7.33005 16.8053V12.038C7.33005 11.6003 7.66565 11.2434 8.07712 11.2434Z" fill="#5B6EB9"/>
</svg>
