<svg width="23" height="22" viewBox="0 0 23 22" fill="none" xmlns="http://www.w3.org/2000/svg">
<path d="M13.9954 2.00142L14.4941 1.95155V1.95155L13.9954 2.00142ZM13.8675 1.27353L13.4124 1.48339V1.48339L13.8675 1.27353ZM14.2422 3.297L14.6595 3.01943L14.6595 3.01943L14.2422 3.297ZM15.2744 3.72453L15.1756 3.23319L15.2744 3.72453ZM16.365 2.98297L16.0476 2.59508L16.0476 2.59508L16.365 2.98297ZM16.9701 2.55877L17.1435 3.02897L16.9701 2.55877ZM17.7556 2.59795L17.5363 3.04856L17.7556 2.59795ZM18.3155 3.08025L18.6699 2.72587V2.72587L18.3155 3.08025ZM19.1756 3.9403L18.8212 4.29468L18.8212 4.29468L19.1756 3.9403ZM19.6579 4.50014L19.2072 4.71951L19.2072 4.71951L19.6579 4.50014ZM19.697 5.28575L19.2268 5.11231L19.2268 5.11231L19.697 5.28575ZM19.2729 5.89079L18.885 5.57341L18.8815 5.57771L19.2729 5.89079ZM19.2729 5.8908L19.6608 6.20818L19.6642 6.20388L19.2729 5.8908ZM18.5314 6.98131L19.0227 7.08012L18.5314 6.98131ZM18.9589 8.01352L19.2365 7.59623L19.2365 7.59623L18.9589 8.01352ZM20.2544 8.26031L20.3043 7.76163L20.2544 8.26031ZM20.9822 8.38822L21.1921 7.9331V7.9331L20.9822 8.38822ZM21.51 8.97141L21.9837 8.80788V8.80788L21.51 8.97141ZM21.51 11.6615L21.9838 11.825V11.825L21.51 11.6615ZM20.9822 12.2448L20.7723 11.7896V11.7896L20.9822 12.2448ZM20.2545 12.3726L20.3043 12.8713L20.2545 12.3726ZM18.9593 12.6193L18.6818 12.202V12.202L18.9593 12.6193ZM18.5316 13.6518L18.0403 13.7506V13.7506L18.5316 13.6518ZM19.273 14.7419L18.8851 15.0593L18.9009 15.0786L18.9186 15.0963L19.273 14.7419ZM19.273 14.7419L19.69 14.4639L19.6624 14.4227L19.6274 14.3876L19.273 14.7419ZM19.273 14.742L18.856 15.02L18.8696 15.0403L18.8851 15.0593L19.273 14.742ZM19.697 15.3468L19.2269 15.5203L19.2269 15.5203L19.697 15.3468ZM19.6579 16.1326L20.1084 16.352V16.352L19.6579 16.1326ZM19.1757 16.6922L19.5301 17.0466L19.5301 17.0466L19.1757 16.6922ZM19.1757 16.6923L19.5301 17.0466L19.1757 16.6923ZM18.3156 17.5524L17.9612 17.198H17.9612L18.3156 17.5524ZM17.7557 18.0347L17.975 18.4853L17.975 18.4853L17.7557 18.0347ZM16.9701 18.0739L16.7967 18.5441H16.7967L16.9701 18.0739ZM16.365 17.6497L16.6824 17.2618H16.6824L16.365 17.6497ZM15.2744 16.9081L15.1756 17.3995H15.1756L15.2744 16.9081ZM14.2423 17.3357L14.6596 17.6132L14.6596 17.6132L14.2423 17.3357ZM13.9954 18.6314L14.4898 18.7138L14.4925 18.6976L14.4941 18.6813L13.9954 18.6314ZM13.9954 18.6314L13.5011 18.549L13.4984 18.5652L13.4968 18.5816L13.9954 18.6314ZM13.8674 19.3596L14.3225 19.5696L14.3225 19.5696L13.8674 19.3596ZM13.2844 19.8872L13.448 20.361H13.448L13.2844 19.8872ZM10.5942 19.8873L10.4306 20.361H10.4306L10.5942 19.8873ZM10.011 19.3595L10.4661 19.1497L10.4661 19.1497L10.011 19.3595ZM9.88307 18.6317L9.38439 18.6816L9.88307 18.6317ZM9.63626 17.3361L9.21898 17.6137H9.21898L9.63626 17.3361ZM8.60412 16.9086L8.50533 16.4173H8.50533L8.60412 16.9086ZM7.51347 17.6502L7.19611 17.2623H7.19611L7.51347 17.6502ZM6.9083 18.0744L7.08172 18.5447H7.08172L6.9083 18.0744ZM6.12279 18.0353L5.90345 18.4859H5.90345L6.12279 18.0353ZM5.56286 17.5529L5.91724 17.1985H5.91724L5.56286 17.5529ZM4.7029 16.693L4.34852 17.0474H4.34853L4.7029 16.693ZM4.22052 16.133L3.7699 16.3523L3.7699 16.3523L4.22052 16.133ZM4.18135 15.3475L3.71113 15.1741L4.18135 15.3475ZM4.60563 14.7423L4.99351 15.0597H4.99351L4.60563 14.7423ZM5.34727 13.6516L4.85593 13.5528L5.34727 13.6516ZM4.91977 12.6195L4.64218 13.0368L4.91977 12.6195ZM3.62412 12.3726L3.67399 11.874H3.67399L3.62412 12.3726ZM2.89623 12.2447L2.68636 12.6998L2.68636 12.6998L2.89623 12.2447ZM2.3685 11.6616L2.84223 11.498H2.84223L2.3685 11.6616ZM2.36852 8.97131L2.84224 9.13488H2.84224L2.36852 8.97131ZM2.89617 8.38826L2.68627 7.93317H2.68627L2.89617 8.38826ZM3.62421 8.26029V7.75913H3.59921L3.57434 7.76161L3.62421 8.26029ZM3.62421 8.26029V8.76146H3.64921L3.67408 8.75898L3.62421 8.26029ZM4.92012 8.01338L4.64249 7.59614H4.64249L4.92012 8.01338ZM5.34755 6.98145L5.8389 6.88273V6.88273L5.34755 6.98145ZM4.60575 5.89045L4.21787 6.20781L4.21787 6.20781L4.60575 5.89045ZM4.18136 5.28504L3.71113 5.45839L3.71113 5.45839L4.18136 5.28504ZM4.22052 4.49975L3.76988 4.28046L4.22052 4.49975ZM4.70302 3.9396L4.34864 3.58522H4.34864L4.70302 3.9396ZM4.70302 3.9396L4.34864 3.58522L4.70302 3.9396ZM5.5629 3.07972L5.91728 3.4341L5.5629 3.07972ZM6.12283 2.59738L6.34218 3.048H6.34218L6.12283 2.59738ZM6.90834 2.5582L6.73493 3.02841H6.73493L6.90834 2.5582ZM7.51358 2.98251L7.19622 3.37039H7.19622L7.51358 2.98251ZM8.604 3.72401L8.70287 3.23269H8.70287L8.604 3.72401ZM9.63639 3.29638L10.0537 3.57389H10.0537L9.63639 3.29638ZM9.88309 2.00124L10.3818 2.05111V2.05111L9.88309 2.00124ZM10.0109 1.27364L10.4661 1.48345L10.4661 1.48345L10.0109 1.27364ZM10.5943 0.745742L10.4308 0.271985L10.4308 0.271985L10.5943 0.745742ZM13.2843 0.745784L13.1208 1.21952V1.21952L13.2843 0.745784ZM14.4941 1.95155C14.4597 1.60797 14.437 1.31168 14.3226 1.06366L13.4124 1.48339C13.4388 1.54075 13.4544 1.62793 13.4967 2.05129L14.4941 1.95155ZM14.6595 3.01943C14.6507 3.00615 14.6208 2.94966 14.5883 2.7591C14.5565 2.57308 14.5311 2.32166 14.4941 1.95155L13.4967 2.05129C13.5323 2.40659 13.5612 2.69922 13.6003 2.92777C13.6385 3.15179 13.6958 3.38038 13.8249 3.57457L14.6595 3.01943ZM15.1756 3.23319C14.9761 3.2733 14.7722 3.18883 14.6595 3.01943L13.8249 3.57457C14.163 4.08278 14.7748 4.33618 15.3732 4.21586L15.1756 3.23319ZM16.0476 2.59508C15.7598 2.83061 15.564 2.9904 15.41 3.09948C15.2523 3.21122 15.1912 3.23005 15.1756 3.23319L15.3732 4.21586C15.6018 4.16989 15.804 4.04876 15.9894 3.9174C16.1786 3.78338 16.406 3.59695 16.6823 3.37085L16.0476 2.59508ZM16.7967 2.08856C16.5404 2.18306 16.3148 2.37645 16.0476 2.59508L16.6823 3.37085C17.0116 3.10146 17.0843 3.05083 17.1435 3.02897L16.7967 2.08856ZM17.975 2.14733C17.6066 1.96801 17.181 1.94679 16.7967 2.08856L17.1435 3.02897C17.2716 2.98171 17.4135 2.98879 17.5363 3.04856L17.975 2.14733ZM18.6699 2.72587C18.4258 2.48173 18.2205 2.26686 17.975 2.14733L17.5363 3.04856C17.5931 3.0762 17.6603 3.13381 17.9612 3.43463L18.6699 2.72587ZM19.53 3.58592L18.6699 2.72587L17.9612 3.43463L18.8212 4.29468L19.53 3.58592ZM20.1085 4.28078C19.9889 4.03525 19.7741 3.83004 19.53 3.58592L18.8212 4.29468C19.122 4.59548 19.1796 4.66273 19.2072 4.71951L20.1085 4.28078ZM20.1672 5.4592C20.309 5.07479 20.2878 4.64916 20.1085 4.28078L19.2072 4.71951C19.267 4.84231 19.2741 4.98418 19.2268 5.11231L20.1672 5.4592ZM19.6608 6.20815C19.8794 5.94096 20.0727 5.71539 20.1672 5.45919L19.2268 5.11231C19.205 5.17156 19.1544 5.24421 18.885 5.57343L19.6608 6.20815ZM19.6642 6.20388L19.6642 6.20386L18.8815 5.57771L18.8815 5.57772L19.6642 6.20388ZM19.0227 7.08012C19.0258 7.06449 19.0447 7.00344 19.1564 6.84571C19.2655 6.69174 19.4252 6.496 19.6607 6.20816L18.885 5.57344C18.6589 5.84977 18.4725 6.07715 18.3385 6.26633C18.2071 6.45175 18.086 6.65387 18.04 6.8825L19.0227 7.08012ZM19.2365 7.59623C19.067 7.48354 18.9826 7.2796 19.0227 7.08012L18.04 6.8825C17.9197 7.48094 18.1731 8.09276 18.6814 8.43082L19.2365 7.59623ZM20.3043 7.76163C19.9342 7.72462 19.6828 7.69919 19.4968 7.66744C19.3062 7.63491 19.2497 7.60506 19.2365 7.59623L18.6814 8.43081C18.8755 8.55997 19.1041 8.61724 19.3281 8.65548C19.5566 8.69449 19.8492 8.72346 20.2045 8.75899L20.3043 7.76163ZM21.1921 7.9331C20.9441 7.81875 20.6478 7.79598 20.3043 7.76163L20.2045 8.75899C20.6278 8.80132 20.715 8.81689 20.7724 8.84334L21.1921 7.9331ZM21.9837 8.80788C21.8501 8.42061 21.5641 8.10466 21.1921 7.9331L20.7724 8.84334C20.8964 8.90052 20.9917 9.00584 21.0363 9.13493L21.9837 8.80788ZM22.066 9.70834C22.066 9.36308 22.0728 9.06603 21.9837 8.80788L21.0363 9.13493C21.0569 9.19463 21.0637 9.28292 21.0637 9.70834H22.066ZM22.066 10.9247V9.70834H21.0637V10.9247H22.066ZM21.9838 11.825C22.0728 11.5669 22.066 11.2699 22.066 10.9247H21.0637C21.0637 11.35 21.0569 11.4383 21.0363 11.498L21.9838 11.825ZM21.192 12.6999C21.5641 12.5283 21.8501 12.2123 21.9838 11.825L21.0363 11.498C20.9917 11.6271 20.8964 11.7324 20.7723 11.7896L21.192 12.6999ZM20.3043 12.8713C20.6478 12.837 20.944 12.8142 21.192 12.6999L20.7723 11.7896C20.715 11.8161 20.6278 11.8316 20.2046 11.874L20.3043 12.8713ZM19.2368 13.0367C19.2501 13.0278 19.3065 12.998 19.497 12.9655C19.683 12.9337 19.9343 12.9083 20.3043 12.8713L20.2046 11.874C19.8494 11.9095 19.5569 11.9384 19.3284 11.9774C19.1045 12.0157 18.8759 12.0729 18.6818 12.202L19.2368 13.0367ZM19.023 13.5529C18.9828 13.3533 19.0673 13.1494 19.2368 13.0367L18.6818 12.202C18.1734 12.5401 17.9199 13.1521 18.0403 13.7506L19.023 13.5529ZM19.6608 14.4246C19.4254 14.1368 19.2657 13.9411 19.1566 13.7872C19.0449 13.6295 19.0261 13.5685 19.023 13.5529L18.0403 13.7506C18.0863 13.9792 18.2074 14.1812 18.3387 14.3666C18.4727 14.5557 18.6591 14.783 18.8851 15.0593L19.6608 14.4246ZM19.6274 14.3876L19.6273 14.3875L18.9186 15.0963L18.9186 15.0963L19.6274 14.3876ZM19.69 14.464L19.69 14.4639L18.856 15.0199L18.856 15.02L19.69 14.464ZM20.1672 15.1733C20.0727 14.9172 19.8794 14.6917 19.6609 14.4246L18.8851 15.0593C19.1544 15.3884 19.205 15.4611 19.2269 15.5203L20.1672 15.1733ZM20.1084 16.352C20.2879 15.9835 20.3091 15.5578 20.1672 15.1733L19.2269 15.5203C19.2741 15.6485 19.2671 15.7904 19.2073 15.9132L20.1084 16.352ZM19.5301 17.0466C19.7741 16.8026 19.9889 16.5974 20.1084 16.352L19.2073 15.9132C19.1796 15.9699 19.122 16.0372 18.8213 16.3379L19.5301 17.0466ZM19.5301 17.0466L19.5301 17.0466L18.8213 16.3379L18.8213 16.3379L19.5301 17.0466ZM18.6699 17.9068L19.5301 17.0466L18.8213 16.3379L17.9612 17.198L18.6699 17.9068ZM17.975 18.4853C18.2206 18.3658 18.4258 18.1509 18.6699 17.9068L17.9612 17.198C17.6604 17.4988 17.5931 17.5565 17.5363 17.5841L17.975 18.4853ZM16.7967 18.5441C17.1811 18.6859 17.6067 18.6646 17.975 18.4853L17.5363 17.5841C17.4135 17.6439 17.2717 17.6509 17.1435 17.6037L16.7967 18.5441ZM16.0477 18.0376C16.3149 18.2562 16.5405 18.4496 16.7967 18.5441L17.1435 17.6037C17.0843 17.5818 17.0116 17.5312 16.6824 17.2618L16.0477 18.0376ZM15.1756 17.3995C15.1913 17.4026 15.2523 17.4214 15.4101 17.5332C15.564 17.6423 15.7598 17.802 16.0477 18.0376L16.6824 17.2618C16.406 17.0357 16.1786 16.8493 15.9894 16.7153C15.804 16.5839 15.6019 16.4628 15.3732 16.4168L15.1756 17.3995ZM14.6596 17.6132C14.7722 17.4438 14.9762 17.3594 15.1756 17.3995L15.3732 16.4168C14.7748 16.2965 14.163 16.5499 13.825 17.0581L14.6596 17.6132ZM14.4941 18.6813C14.5311 18.3111 14.5566 18.0596 14.5883 17.8736C14.6209 17.683 14.6507 17.6265 14.6596 17.6132L13.825 17.0581C13.6958 17.2523 13.6385 17.4809 13.6003 17.7049C13.5613 17.9335 13.5323 18.2262 13.4968 18.5815L14.4941 18.6813ZM14.4898 18.7138L14.4898 18.7138L13.5011 18.549L13.5011 18.549L14.4898 18.7138ZM14.3225 19.5696C14.437 19.3215 14.4597 19.025 14.4941 18.6813L13.4968 18.5816C13.4544 19.0051 13.4388 19.0924 13.4123 19.1497L14.3225 19.5696ZM13.448 20.361C13.8352 20.2273 14.151 19.9415 14.3225 19.5696L13.4123 19.1497C13.3552 19.2737 13.2499 19.369 13.1209 19.4135L13.448 20.361ZM12.5472 20.4433C12.8926 20.4433 13.1898 20.4501 13.448 20.361L13.1209 19.4135C13.0611 19.4342 12.9728 19.441 12.5472 19.441V20.4433ZM11.3311 20.4433H12.5472V19.441H11.3311V20.4433ZM10.4306 20.361C10.6888 20.4501 10.9858 20.4433 11.3311 20.4433V19.441C10.9057 19.441 10.8174 19.4342 10.7577 19.4135L10.4306 20.361ZM9.55587 19.5694C9.72742 19.9414 10.0434 20.2273 10.4306 20.361L10.7577 19.4135C10.6286 19.369 10.5233 19.2737 10.4661 19.1497L9.55587 19.5694ZM9.38439 18.6816C9.41875 19.0251 9.44152 19.3214 9.55587 19.5694L10.4661 19.1497C10.4397 19.0923 10.4241 19.0051 10.3818 18.5818L9.38439 18.6816ZM9.21898 17.6137C9.22781 17.627 9.25767 17.6835 9.29019 17.874C9.32195 18.06 9.34738 18.3115 9.38439 18.6816L10.3818 18.5818C10.3462 18.2265 10.3173 17.9339 10.2782 17.7054C10.24 17.4813 10.1827 17.2528 10.0535 17.0586L9.21898 17.6137ZM8.70291 17.3999C8.90237 17.3598 9.10629 17.4443 9.21898 17.6137L10.0535 17.0586C9.71548 16.5504 9.10373 16.297 8.50533 16.4173L8.70291 17.3999ZM7.83083 18.0381C8.11871 17.8025 8.31447 17.6428 8.46847 17.5337C8.62622 17.4219 8.68728 17.4031 8.70291 17.3999L8.50533 16.4173C8.27667 16.4633 8.07453 16.5844 7.88908 16.7157C7.69989 16.8498 7.47247 17.0362 7.19611 17.2623L7.83083 18.0381ZM7.08172 18.5447C7.33797 18.4502 7.56358 18.2567 7.83083 18.0381L7.19611 17.2623C6.86682 17.5317 6.79415 17.5824 6.73489 17.6042L7.08172 18.5447ZM5.90345 18.4859C6.2718 18.6652 6.69736 18.6864 7.08172 18.5447L6.73489 17.6042C6.60677 17.6515 6.46492 17.6444 6.34214 17.5847L5.90345 18.4859ZM5.20848 17.9073C5.45264 18.1515 5.65788 18.3664 5.90345 18.4859L6.34214 17.5847C6.28535 17.557 6.21808 17.4994 5.91724 17.1985L5.20848 17.9073ZM4.34853 17.0474L5.20848 17.9073L5.91724 17.1985L5.05728 16.3386L4.34853 17.0474ZM3.7699 16.3523C3.88944 16.5979 4.10434 16.8032 4.34852 17.0474L5.05728 16.3386C4.75641 16.0377 4.6988 15.9705 4.67115 15.9137L3.7699 16.3523ZM3.71113 15.1741C3.5694 15.5585 3.59063 15.984 3.7699 16.3523L4.67115 15.9137C4.61139 15.7909 4.60432 15.649 4.65156 15.5209L3.71113 15.1741ZM4.21774 14.4249C3.99907 14.6922 3.80564 14.9179 3.71113 15.1741L4.65156 15.5209C4.67342 15.4617 4.72406 15.389 4.99351 15.0597L4.21774 14.4249ZM4.85593 13.5528C4.85279 13.5684 4.83396 13.6295 4.7222 13.7873C4.61311 13.9413 4.4533 14.137 4.21774 14.4249L4.99351 15.0597C5.21964 14.7833 5.4061 14.5559 5.54013 14.3666C5.6715 14.1812 5.79264 13.979 5.83861 13.7503L4.85593 13.5528ZM4.64218 13.0368C4.81157 13.1494 4.89603 13.3533 4.85593 13.5528L5.83861 13.7503C5.9589 13.152 5.70552 12.5403 5.19736 12.2022L4.64218 13.0368ZM3.57425 12.8713C3.94438 12.9083 4.19581 12.9338 4.38184 12.9655C4.57241 12.9981 4.6289 13.0279 4.64218 13.0368L5.19736 12.2022C5.00316 12.073 4.77455 12.0157 4.55052 11.9775C4.32196 11.9385 4.02931 11.9095 3.67399 11.874L3.57425 12.8713ZM2.68636 12.6998C2.93439 12.8142 3.23067 12.837 3.57425 12.8713L3.67399 11.874C3.25064 11.8316 3.16345 11.8161 3.1061 11.7896L2.68636 12.6998ZM1.89476 11.8251C2.02844 12.2124 2.31435 12.5283 2.68636 12.6998L3.1061 11.7896C2.98209 11.7324 2.88679 11.6271 2.84223 11.498L1.89476 11.8251ZM1.81246 10.9246C1.81246 11.2699 1.80564 11.5669 1.89476 11.8251L2.84223 11.498C2.82162 11.4383 2.8148 11.35 2.8148 10.9246H1.81246ZM1.81246 9.70847V10.9246H2.8148V9.70847H1.81246ZM1.8948 8.80773C1.80563 9.06596 1.81246 9.3631 1.81246 9.70847H2.8148C2.8148 9.28291 2.82162 9.1946 2.84224 9.13488L1.8948 8.80773ZM2.68627 7.93317C2.31433 8.10471 2.02848 8.42057 1.8948 8.80773L2.84224 9.13488C2.8868 9.00583 2.98209 8.90054 3.10607 8.84336L2.68627 7.93317ZM3.57434 7.76161C3.23068 7.79598 2.93434 7.81875 2.68627 7.93317L3.10607 8.84336C3.16343 8.8169 3.25063 8.80132 3.67408 8.75898L3.57434 7.76161ZM3.62421 7.75913H3.62421V8.76146H3.62421V7.75913ZM4.64249 7.59614C4.6292 7.60497 4.5727 7.63484 4.3821 7.66739C4.19603 7.69915 3.94455 7.72459 3.57434 7.76161L3.67408 8.75898C4.02947 8.72344 4.32218 8.69446 4.55079 8.65543C4.77487 8.61717 5.00352 8.55986 5.19775 8.43062L4.64249 7.59614ZM4.8562 7.08017C4.89627 7.2796 4.81183 7.48346 4.64249 7.59614L5.19775 8.43062C5.70578 8.09258 5.9591 7.481 5.8389 6.88273L4.8562 7.08017ZM4.21787 6.20781C4.45348 6.49578 4.61334 6.69161 4.72245 6.84566C4.83423 7.00346 4.85306 7.06454 4.8562 7.08017L5.8389 6.88273C5.79295 6.654 5.67178 6.45179 5.54038 6.26629C5.40632 6.07703 5.21982 5.84954 4.99363 5.57309L4.21787 6.20781ZM3.71113 5.45839C3.80564 5.71475 3.99912 5.94045 4.21787 6.20781L4.99363 5.57309C4.7241 5.24366 4.67344 5.17096 4.65159 5.11168L3.71113 5.45839ZM3.76988 4.28046C3.59068 4.64872 3.56946 5.07413 3.71113 5.45839L4.65159 5.11168C4.60437 4.98359 4.61144 4.84179 4.67117 4.71903L3.76988 4.28046ZM4.34864 3.58522C4.1044 3.82947 3.88943 4.03478 3.76988 4.28046L4.67117 4.71903C4.69882 4.66222 4.75645 4.59493 5.0574 4.29398L4.34864 3.58522ZM4.34864 3.58522L4.34864 3.58522L5.0574 4.29398L5.0574 4.29398L4.34864 3.58522ZM5.20852 2.72534L4.34864 3.58522L5.0574 4.29398L5.91728 3.4341L5.20852 2.72534ZM5.20852 2.72534L5.20852 2.72534L5.91728 3.4341L5.91728 3.4341L5.20852 2.72534ZM5.90349 2.14676C5.65792 2.26629 5.45268 2.48118 5.20852 2.72534L5.91728 3.4341C6.21812 3.13326 6.28539 3.07564 6.34218 3.048L5.90349 2.14676ZM7.08176 2.08799C6.6974 1.94624 6.27184 1.96747 5.90349 2.14676L6.34218 3.048C6.46496 2.98824 6.60681 2.98116 6.73493 3.02841L7.08176 2.08799ZM7.83094 2.59462C7.56365 2.37593 7.33801 2.1825 7.08176 2.08799L6.73493 3.02841C6.79419 3.05027 6.86687 3.10092 7.19622 3.37039L7.83094 2.59462ZM8.70287 3.23269C8.68725 3.22955 8.62621 3.21071 8.46848 3.09897C8.31451 2.9899 8.11877 2.83012 7.83094 2.59462L7.19622 3.37039C7.47254 3.59647 7.69991 3.78287 7.88907 3.91687C8.07446 4.04821 8.27655 4.16933 8.50513 4.21533L8.70287 3.23269ZM9.21906 3.01888C9.10637 3.18835 8.90239 3.27284 8.70287 3.23269L8.50513 4.21533C9.10368 4.33578 9.71564 4.08229 10.0537 3.57389L9.21906 3.01888ZM9.38441 1.95138C9.34741 2.32135 9.32198 2.57268 9.29024 2.75863C9.25773 2.94912 9.22789 3.0056 9.21906 3.01888L10.0537 3.57389C10.1828 3.37974 10.2401 3.15122 10.2783 2.92728C10.3173 2.69881 10.3463 2.40628 10.3818 2.05111L9.38441 1.95138ZM9.55581 1.06384C9.44151 1.31177 9.41875 1.60793 9.38441 1.95138L10.3818 2.05111C10.4241 1.62794 10.4397 1.54079 10.4661 1.48345L9.55581 1.06384ZM10.4308 0.271985C10.0434 0.40566 9.72736 0.691671 9.5558 1.06384L10.4661 1.48345C10.5233 1.35939 10.6286 1.26406 10.7577 1.2195L10.4308 0.271985ZM11.331 0.18975C10.9858 0.18975 10.6889 0.182932 10.4308 0.271985L10.7577 1.2195C10.8174 1.1989 10.9057 1.19209 11.331 1.19209V0.18975ZM12.5473 0.18975H11.331V1.19209H12.5473V0.18975ZM13.4479 0.272049C13.1897 0.182927 12.8926 0.18975 12.5473 0.18975V1.19209C12.9728 1.19209 13.0611 1.19891 13.1208 1.21952L13.4479 0.272049ZM14.3226 1.06366C14.151 0.69164 13.8351 0.405729 13.4479 0.272049L13.1208 1.21952C13.2499 1.26408 13.3552 1.35938 13.4124 1.48339L14.3226 1.06366ZM15.2883 10.3166C15.2883 12.1662 13.7889 13.6657 11.9392 13.6657V14.668C14.3425 14.668 16.2907 12.7198 16.2907 10.3166H15.2883ZM11.9392 6.96751C13.7889 6.96751 15.2883 8.46695 15.2883 10.3166H16.2907C16.2907 7.91337 14.3425 5.96518 11.9392 5.96518V6.96751ZM8.59016 10.3166C8.59016 8.46695 10.0896 6.96751 11.9392 6.96751V5.96518C9.53602 5.96518 7.58782 7.91337 7.58782 10.3166H8.59016ZM11.9392 13.6657C10.0896 13.6657 8.59016 12.1662 8.59016 10.3166H7.58782C7.58782 12.7198 9.53602 14.668 11.9392 14.668V13.6657Z" fill="white"/>
</svg>
